<?xml version="1.0" encoding="utf-8"?>
<!-- Generator: Adobe Illustrator 24.1.1, SVG Export Plug-In . SVG Version: 6.00 Build 0)  -->
<svg version="1.1" id="katman_1" xmlns="http://www.w3.org/2000/svg" xmlns:xlink="http://www.w3.org/1999/xlink" x="0px" y="0px"
	 viewBox="0 0 232 68" style="enable-background:new 0 0 232 68;" xml:space="preserve">
<style type="text/css">
	.st0{fill:#FFFFFF;}
	.st1{enable-background:new    ;}
</style>
<path class="st0" d="M64.6,16.2C63,9.9,58.1,5,51.8,3.4C40,1.5,28,1.5,16.2,3.4C9.9,5,5,9.9,3.4,16.2C1.5,28,1.5,40,3.4,51.8
	C5,58.1,9.9,63,16.2,64.6c11.8,1.9,23.8,1.9,35.6,0C58.1,63,63,58.1,64.6,51.8C66.5,40,66.5,28,64.6,16.2z M33.3,36.3
	c-2.8,4.4-6.6,8.2-11.1,11c-1.5,0.9-3.3,0.9-4.8,0.1s-2.4-2.3-2.5-4c0-1.7,0.9-3.3,2.4-4.1c2.3-1.4,4.4-3.2,6.1-5.3
	c-1.8-2.1-3.8-3.8-6.1-5.3c-2.3-1.3-3-4.2-1.7-6.4s4.3-2.9,6.5-1.6c4.5,2.8,8.2,6.5,11.1,10.9C34.2,33,34.2,34.9,33.3,36.3z
	 M49.2,46H37.8c-2.1,0-3.8-1-3.8-3s1.7-3,3.8-3h11.4c2.1,0,3.8,1,3.8,3S51.3,46,49.2,46z"/>
<g class="st1">
	<path class="st0" d="M109.3,50.6c0,0.5,0,0.9-0.1,1.2c0,0.3-0.1,0.5-0.2,0.7s-0.2,0.3-0.3,0.3c-0.1,0-0.2,0.1-0.3,0.1
		c-0.5,0-1.1-0.1-1.8-0.4c-0.7-0.3-1.6-0.6-2.4-1.1c-0.9-0.5-1.8-1-2.7-1.7s-1.7-1.5-2.5-2.3c-0.6,0.3-1.4,0.5-2.3,0.8
		s-1.9,0.3-3.1,0.3c-2.1,0-4-0.3-5.5-0.8s-2.9-1.4-3.9-2.5c-1-1.1-1.8-2.6-2.4-4.3C81.3,39.1,81,37,81,34.6c0-2.2,0.3-4.2,0.8-5.9
		s1.4-3.2,2.5-4.5c1.1-1.2,2.5-2.2,4.1-2.8c1.6-0.7,3.5-1,5.7-1c2,0,3.8,0.3,5.4,0.8c1.6,0.5,2.9,1.4,3.9,2.5s1.9,2.5,2.4,4.3
		s0.8,3.8,0.8,6.1c0,1.2-0.1,2.4-0.2,3.4c-0.2,1.1-0.4,2.1-0.7,3c-0.3,0.9-0.7,1.7-1.1,2.5c-0.4,0.8-1,1.4-1.5,2
		c0.9,0.8,1.6,1.3,2.3,1.7c0.7,0.4,1.2,0.7,1.7,0.9c0.5,0.2,0.8,0.3,1.1,0.4c0.3,0.1,0.5,0.2,0.6,0.4c0.2,0.1,0.3,0.4,0.3,0.8
		C109.2,49.4,109.3,49.9,109.3,50.6z M100.9,34.3c0-1.4-0.1-2.7-0.3-3.9s-0.6-2.2-1.1-3c-0.5-0.8-1.3-1.5-2.2-1.9
		c-0.9-0.5-2-0.7-3.4-0.7c-1.4,0-2.5,0.3-3.4,0.8c-0.9,0.5-1.6,1.2-2.2,2c-0.6,0.9-1,1.9-1.2,3c-0.2,1.1-0.3,2.3-0.3,3.6
		c0,1.5,0.1,2.8,0.3,4s0.6,2.2,1.1,3c0.5,0.8,1.2,1.5,2.1,1.9c0.9,0.4,2,0.7,3.4,0.7c1.4,0,2.5-0.3,3.4-0.8c0.9-0.5,1.6-1.2,2.2-2.1
		c0.6-0.9,1-1.9,1.2-3S100.9,35.7,100.9,34.3z"/>
	<path class="st0" d="M129.2,47.3c0,0.1,0,0.3-0.1,0.4c-0.1,0.1-0.2,0.2-0.4,0.3c-0.2,0.1-0.4,0.1-0.7,0.2c-0.3,0-0.6,0.1-1.1,0.1
		c-0.5,0-0.8,0-1.1-0.1s-0.5-0.1-0.7-0.2c-0.2-0.1-0.3-0.2-0.4-0.3c-0.1-0.1-0.1-0.2-0.1-0.4v-2.2c-1,1.1-2.1,2-3.2,2.5
		s-2.2,0.8-3.3,0.8c-1.3,0-2.4-0.2-3.2-0.6c-0.9-0.4-1.6-1-2.1-1.7c-0.5-0.7-0.9-1.6-1.2-2.5c-0.2-1-0.3-2.2-0.3-3.6V28.6
		c0-0.1,0-0.3,0.1-0.4c0.1-0.1,0.2-0.2,0.4-0.3c0.2-0.1,0.5-0.1,0.8-0.2c0.3,0,0.8-0.1,1.3-0.1c0.5,0,0.9,0,1.3,0.1
		c0.3,0,0.6,0.1,0.8,0.2c0.2,0.1,0.3,0.2,0.4,0.3c0.1,0.1,0.1,0.2,0.1,0.4v10.6c0,1,0.1,1.7,0.2,2.2s0.3,1,0.6,1.3
		c0.3,0.4,0.6,0.7,1,0.9c0.4,0.2,0.9,0.3,1.4,0.3c0.7,0,1.3-0.2,2-0.7c0.7-0.5,1.4-1.2,2.2-2.1V28.6c0-0.1,0-0.3,0.1-0.4
		c0.1-0.1,0.2-0.2,0.4-0.3c0.2-0.1,0.5-0.1,0.8-0.2c0.3,0,0.8-0.1,1.3-0.1s0.9,0,1.3,0.1c0.3,0,0.6,0.1,0.8,0.2
		c0.2,0.1,0.3,0.2,0.4,0.3c0.1,0.1,0.1,0.2,0.1,0.4V47.3z"/>
	<path class="st0" d="M150.5,47.3c0,0.2-0.1,0.3-0.2,0.5c-0.1,0.1-0.4,0.2-0.7,0.2c-0.3,0-0.7,0.1-1.3,0.1c-0.6,0-1.1,0-1.4-0.1
		c-0.3,0-0.5-0.1-0.6-0.2c-0.1-0.1-0.2-0.3-0.2-0.5v-1.5c-0.8,0.8-1.6,1.5-2.6,1.9s-2.1,0.7-3.3,0.7c-1,0-1.9-0.1-2.7-0.4
		c-0.8-0.3-1.6-0.6-2.2-1.2s-1.1-1.1-1.4-1.9s-0.5-1.6-0.5-2.6c0-1.1,0.2-2,0.6-2.8s1.1-1.5,1.9-2s1.9-0.9,3.2-1.2
		c1.3-0.3,2.7-0.4,4.4-0.4h1.8v-1.1c0-0.6-0.1-1.1-0.2-1.5c-0.1-0.4-0.3-0.8-0.6-1.1c-0.3-0.3-0.6-0.5-1.1-0.7
		c-0.5-0.1-1-0.2-1.7-0.2c-0.9,0-1.7,0.1-2.4,0.3c-0.7,0.2-1.3,0.4-1.8,0.7c-0.5,0.2-1,0.5-1.3,0.7c-0.4,0.2-0.6,0.3-0.9,0.3
		c-0.2,0-0.3,0-0.4-0.1c-0.1-0.1-0.2-0.2-0.3-0.4c-0.1-0.2-0.1-0.4-0.2-0.7s-0.1-0.6-0.1-0.9c0-0.4,0-0.8,0.1-1
		c0.1-0.3,0.2-0.5,0.4-0.7c0.2-0.2,0.5-0.4,1-0.7c0.5-0.2,1.1-0.5,1.7-0.7c0.7-0.2,1.4-0.4,2.2-0.5c0.8-0.1,1.6-0.2,2.4-0.2
		c1.5,0,2.7,0.1,3.8,0.4c1,0.3,1.9,0.7,2.6,1.3c0.7,0.6,1.2,1.4,1.5,2.3c0.3,0.9,0.5,2,0.5,3.3V47.3z M145.3,39.3h-2
		c-0.9,0-1.6,0.1-2.2,0.2s-1.1,0.3-1.5,0.6c-0.4,0.3-0.7,0.6-0.8,0.9c-0.2,0.4-0.3,0.8-0.3,1.2c0,0.8,0.2,1.4,0.7,1.8
		c0.5,0.4,1.2,0.7,2.1,0.7c0.7,0,1.4-0.2,2-0.6c0.6-0.4,1.3-0.9,1.9-1.7V39.3z"/>
	<path class="st0" d="M179.7,45.4c0,0.6,0,1.1-0.1,1.4c-0.1,0.3-0.2,0.6-0.3,0.7c-0.1,0.1-0.3,0.3-0.6,0.4c-0.2,0.1-0.5,0.2-0.8,0.3
		c-0.3,0.1-0.7,0.1-1.1,0.2c-0.4,0-0.8,0.1-1.1,0.1c-1.1,0-2-0.1-2.7-0.4c-0.8-0.3-1.4-0.7-1.9-1.2c-0.5-0.6-0.9-1.2-1.1-2.1
		c-0.2-0.8-0.4-1.8-0.4-3v-9.6h-8v8.8c0,1,0.2,1.8,0.5,2.3c0.3,0.5,0.9,0.8,1.7,0.8c0.3,0,0.5,0,0.8-0.1c0.2,0,0.4-0.1,0.6-0.2
		c0.2-0.1,0.3-0.1,0.4-0.2c0.1,0,0.2-0.1,0.3-0.1c0.1,0,0.2,0,0.2,0.1c0.1,0,0.1,0.1,0.2,0.3c0,0.1,0.1,0.3,0.1,0.6s0.1,0.6,0.1,1
		c0,0.4,0,0.7,0,0.9c0,0.2,0,0.4-0.1,0.6c0,0.2-0.1,0.3-0.1,0.4c0,0.1-0.1,0.2-0.2,0.3c-0.1,0.1-0.3,0.2-0.5,0.3s-0.5,0.2-0.8,0.3
		c-0.3,0.1-0.7,0.1-1.1,0.2s-0.8,0.1-1.2,0.1c-1,0-2-0.1-2.7-0.4c-0.8-0.3-1.4-0.7-1.9-1.2c-0.5-0.6-0.9-1.2-1.1-2.1
		c-0.2-0.8-0.4-1.8-0.4-3v-9.6H154c-0.3,0-0.5-0.2-0.6-0.5c-0.1-0.3-0.2-0.9-0.2-1.6c0-0.4,0-0.7,0.1-1c0-0.3,0.1-0.5,0.2-0.7
		c0.1-0.2,0.2-0.3,0.3-0.3c0.1-0.1,0.2-0.1,0.4-0.1h2.2v-4.2c0-0.1,0-0.3,0.1-0.4c0.1-0.1,0.2-0.2,0.4-0.3c0.2-0.1,0.5-0.1,0.8-0.2
		c0.3,0,0.8-0.1,1.3-0.1c0.5,0,0.9,0,1.3,0.1c0.3,0,0.6,0.1,0.8,0.2c0.2,0.1,0.3,0.2,0.4,0.3c0.1,0.1,0.1,0.2,0.1,0.4v4.2h8v-5.2
		c0-0.1,0-0.3,0.1-0.4c0.1-0.1,0.2-0.2,0.4-0.3c0.2-0.1,0.5-0.1,0.8-0.2c0.3,0,0.8-0.1,1.3-0.1c0.5,0,0.9,0,1.3,0.1s0.6,0.1,0.8,0.2
		c0.2,0.1,0.3,0.2,0.4,0.3c0.1,0.1,0.1,0.2,0.1,0.4v5.2h4.1c0.1,0,0.3,0,0.4,0.1c0.1,0.1,0.2,0.2,0.3,0.3c0.1,0.2,0.1,0.4,0.2,0.7
		c0,0.3,0.1,0.6,0.1,1c0,0.8-0.1,1.3-0.2,1.6c-0.1,0.3-0.3,0.5-0.6,0.5h-4.1v8.8c0,1,0.2,1.8,0.5,2.3s0.9,0.8,1.7,0.8
		c0.3,0,0.5,0,0.8-0.1c0.2,0,0.4-0.1,0.6-0.2c0.2-0.1,0.3-0.1,0.4-0.2c0.1,0,0.2-0.1,0.3-0.1c0.1,0,0.2,0,0.2,0.1
		c0.1,0,0.1,0.1,0.2,0.3c0,0.1,0.1,0.3,0.1,0.6S179.7,45,179.7,45.4z"/>
	<path class="st0" d="M195.6,30.3c0,0.5,0,0.9,0,1.2c0,0.3-0.1,0.6-0.1,0.8s-0.1,0.3-0.2,0.4c-0.1,0.1-0.2,0.1-0.3,0.1
		c-0.1,0-0.2,0-0.4-0.1s-0.3-0.1-0.5-0.2c-0.2-0.1-0.4-0.1-0.6-0.2s-0.4-0.1-0.7-0.1c-0.3,0-0.6,0.1-0.9,0.2
		c-0.3,0.1-0.6,0.3-0.9,0.6c-0.3,0.3-0.6,0.6-1,1s-0.7,0.9-1.1,1.6v11.7c0,0.1,0,0.3-0.1,0.4c-0.1,0.1-0.2,0.2-0.4,0.3
		c-0.2,0.1-0.5,0.1-0.8,0.2c-0.3,0-0.8,0.1-1.3,0.1c-0.5,0-0.9,0-1.3-0.1s-0.6-0.1-0.8-0.2c-0.2-0.1-0.3-0.2-0.4-0.3
		c-0.1-0.1-0.1-0.2-0.1-0.4V28.6c0-0.1,0-0.3,0.1-0.4c0.1-0.1,0.2-0.2,0.4-0.3c0.2-0.1,0.4-0.1,0.7-0.2c0.3,0,0.6-0.1,1.1-0.1
		c0.4,0,0.8,0,1.1,0.1c0.3,0,0.5,0.1,0.7,0.2c0.2,0.1,0.3,0.2,0.3,0.3c0.1,0.1,0.1,0.2,0.1,0.4v2.3c0.5-0.7,1-1.3,1.4-1.7
		c0.4-0.5,0.8-0.8,1.2-1.1s0.8-0.5,1.2-0.6c0.4-0.1,0.8-0.2,1.2-0.2c0.2,0,0.4,0,0.6,0c0.2,0,0.4,0.1,0.7,0.1s0.4,0.1,0.6,0.2
		c0.2,0.1,0.3,0.1,0.4,0.2c0.1,0.1,0.1,0.1,0.2,0.2c0,0.1,0.1,0.2,0.1,0.3c0,0.1,0,0.4,0.1,0.7C195.6,29.4,195.6,29.8,195.6,30.3z"
		/>
	<path class="st0" d="M217.2,37.7c0,1.6-0.2,3-0.6,4.4c-0.4,1.3-1.1,2.4-1.9,3.4s-1.9,1.7-3.2,2.2s-2.8,0.8-4.5,0.8
		c-1.7,0-3.1-0.2-4.3-0.7c-1.2-0.5-2.3-1.1-3.1-2c-0.8-0.9-1.4-2-1.8-3.3c-0.4-1.3-0.6-2.8-0.6-4.4c0-1.6,0.2-3.1,0.6-4.4
		s1.1-2.5,1.9-3.4s1.9-1.7,3.2-2.2s2.8-0.8,4.5-0.8c1.7,0,3.1,0.2,4.4,0.7c1.2,0.5,2.2,1.1,3.1,2c0.8,0.9,1.4,2,1.8,3.3
		S217.2,36.1,217.2,37.7z M211.8,37.9c0-0.9-0.1-1.8-0.2-2.5c-0.1-0.8-0.4-1.5-0.7-2c-0.3-0.6-0.8-1-1.4-1.3
		c-0.6-0.3-1.3-0.5-2.2-0.5c-0.8,0-1.5,0.1-2.1,0.4c-0.6,0.3-1.1,0.7-1.4,1.3c-0.4,0.6-0.7,1.2-0.9,2c-0.2,0.8-0.3,1.7-0.3,2.7
		c0,0.9,0.1,1.8,0.2,2.5c0.2,0.8,0.4,1.5,0.7,2s0.8,1,1.4,1.3c0.6,0.3,1.3,0.5,2.2,0.5c0.8,0,1.5-0.1,2.1-0.4
		c0.6-0.3,1.1-0.7,1.4-1.2c0.4-0.5,0.7-1.2,0.8-2S211.8,38.9,211.8,37.9z"/>
</g>
</svg>
